<svg id="svg" xmlns="http://www.w3.org/2000/svg" xmlns:xlink="http://www.w3.org/1999/xlink" width="400" height="146.73366834170855" viewBox="0, 0, 400,146.73366834170855">
  <g id="svgg">
    <path id="path0" d="M0.000 72.362 L 0.000 144.724 58.291 144.724 L 116.583 144.724 116.583 129.648 L 116.583 114.573 73.367 114.573 L 30.151 114.573 30.151 101.508 L 30.151 88.442 73.367 88.442 L 116.583 88.442 116.583 73.367 L 116.583 58.291 73.367 58.291 L 30.151 58.291 30.151 44.221 L 30.151 30.151 73.367 30.151 L 116.583 30.151 116.583 15.075 L 116.583 0.000 58.291 0.000 L 0.000 0.000 0.000 72.362 M142.714 15.075 L 142.714 30.151 184.925 30.151 L 227.136 30.151 227.136 44.221 L 227.136 58.291 184.925 58.291 L 142.714 58.291 142.714 101.508 L 142.714 144.724 200.000 144.724 L 257.286 144.724 257.286 129.648 L 257.286 114.573 215.075 114.573 L 172.864 114.573 172.864 101.508 L 172.864 88.442 215.075 88.442 L 257.286 88.442 257.286 44.221 L 257.286 0.000 200.000 0.000 L 142.714 0.000 142.714 15.075 M285.427 15.075 L 285.427 30.151 327.638 30.151 L 369.849 30.151 369.849 44.221 L 369.849 58.291 327.638 58.291 L 285.427 58.291 285.427 101.508 L 285.427 144.724 342.714 144.724 L 400.000 144.724 400.000 129.648 L 400.000 114.573 357.789 114.573 L 315.578 114.573 315.578 101.508 L 315.578 88.442 357.789 88.442 L 400.000 88.442 400.000 44.221 L 400.000 0.000 342.714 0.000 L 285.427 0.000 285.427 15.075 "
    stroke="none" fill="#FFFF" fill-rule="evenodd"></path>
  </g>
</svg>
